<?xml version="1.0" encoding="UTF-8"?> <svg xmlns="http://www.w3.org/2000/svg" width="210" height="44" viewBox="0 0 210 44" fill="none"><g clip-path="url(#clip0_6_786)"><path d="M62.8601 10.8803V4.60453L63.8151 4.43399V3.41077H60.302V4.39988L61.2229 4.57042V10.8803H57.5393V4.60453L58.4943 4.43399V3.41077H54.9813V4.39988L55.9022 4.57042V10.9485L54.9813 11.1191V12.1082H62.4849V14.2229H64.0198L64.0539 10.8803H62.8601Z" fill="black"></path><path d="M70.5684 9.82298L70.4661 10.8803H67.5329V8.25403H70.5343V6.99206H67.5329V4.67274H70.3297L70.432 5.73008H71.694V3.41077H65.0089V4.39988L65.9639 4.57042V10.9485L65.0089 11.1191V12.1082H71.8645V9.78887H70.5684V9.82298Z" fill="black"></path><path d="M81.9262 4.39988V3.41077H78.4472V4.39988L79.3681 4.57042V7.1967H75.6845V4.57042L76.6395 4.39988V3.41077H73.1265V4.39988L74.0474 4.57042V10.9485L73.1265 11.1191V12.1082H76.6395V11.1191L75.6845 10.9485V8.45868H79.3681V10.9485L78.4472 11.1191V12.1082H81.9603V11.1191L81.0053 10.9485V4.60453L81.9262 4.39988Z" fill="black"></path><path d="M82.9495 3.41077V5.73008H84.1773L84.2797 4.63864H85.9509V10.9485L84.9959 11.1191V12.1082H88.509V11.1191L87.554 10.9485V4.67274H89.2252L89.3276 5.76419H90.5554V3.41077H82.9495Z" fill="black"></path><path d="M98.5366 4.74103C98.2637 4.33174 97.9226 4.02477 97.4451 3.78602C96.9676 3.54727 96.4219 3.44495 95.7397 3.44495H91.6127V4.43406L92.5677 4.6046V10.9827L91.6127 11.1532V12.1424H95.1258V11.1532L94.1708 10.9827V8.90215H95.7056C96.3537 8.90215 96.9335 8.79983 97.411 8.56107C97.8885 8.32232 98.2637 8.01535 98.5024 7.60606C98.7412 7.19677 98.8776 6.71927 98.8776 6.17355C98.9117 5.62783 98.7753 5.15032 98.5366 4.74103ZM96.8994 7.23088C96.6265 7.50374 96.2514 7.64017 95.7397 7.64017H94.2049V4.67282H95.7397C96.2514 4.67282 96.6265 4.80925 96.8994 5.08211C97.1723 5.35497 97.2746 5.73015 97.2746 6.17355C97.2746 6.61695 97.1381 6.95802 96.8994 7.23088Z" fill="black"></path><path d="M62.7578 26.7744L59.9269 19.1002H58.3238L55.4929 26.7403L54.879 26.8426V27.8317H57.744V26.8426L57.1301 26.7403L57.5394 25.4442H60.7114L61.1206 26.7403L60.5067 26.8426V27.8317H63.3717V26.8426L62.7578 26.7744ZM57.9486 24.2163L59.006 21.1467L59.1083 20.8738H59.1424L59.2447 21.1126L60.3021 24.2163H57.9486Z" fill="black"></path><path d="M72.0691 26.5698V20.294L73.0241 20.1234V19.1002H65.5546V20.0893L66.4073 20.2599L66.2367 22.6474C66.2026 23.3978 66.1344 24.0458 66.0321 24.5574C65.8957 25.069 65.7592 25.4783 65.5887 25.8194C65.4182 26.1264 65.2135 26.3992 65.0089 26.6039H64.3267L64.4631 29.9805H65.9298V27.8317H71.4893V29.9805H72.9559L73.1265 26.6039H72.0691V26.5698ZM70.432 26.5698H66.8507C67.0553 26.2969 67.2259 25.9558 67.3623 25.5806C67.4987 25.2055 67.6351 24.7621 67.7034 24.2846C67.8057 23.8071 67.8398 23.2613 67.8739 22.6474L68.0103 20.3622H70.432V26.5698Z" fill="black"></path><path d="M82.0627 26.7744L79.2659 19.1002H77.6287L74.7978 26.7403L74.1838 26.8426V27.8317H77.0489V26.8426L76.4349 26.7403L76.8442 25.4442H80.0162L80.4255 26.7403L79.8116 26.8426V27.8317H82.6766V26.8426L82.0627 26.7744ZM77.2535 24.2163L78.3108 21.1126L78.4132 20.8397H78.4473L78.5155 21.0785L79.5728 24.1822H77.2535V24.2163Z" fill="black"></path><path d="M92.5337 20.0893V19.1002H83.6998V20.0893L84.6207 20.2599V26.638L83.6998 26.8085V27.7976H87.2129V26.8085L86.2579 26.638V20.3622H89.9415V26.6721L89.0206 26.8426V27.8317H92.5337V26.8426L91.5787 26.6721V20.294L92.5337 20.0893Z" fill="black"></path><path d="M93.4886 19.1002V21.4195H94.7165L94.8188 20.3281H96.4901V26.638L95.5351 26.8085V27.7976H99.0482V26.8085L98.0932 26.638V20.3622H99.7644L99.8667 21.4536H101.095V19.1002H93.4886Z" fill="black"></path><path d="M111.054 20.0893V19.1002H107.541V20.0893L108.462 20.2599V20.7715L104.812 24.5233H104.778V20.294L105.733 20.1234V19.1002H102.22V20.0893L103.175 20.2599V26.638L102.22 26.8085V27.7976H105.733V26.8085L104.778 26.638V26.2628L108.428 22.511H108.462V26.638L107.541 26.8085V27.7976H111.054V26.8085L110.099 26.638V20.294L111.054 20.0893Z" fill="black"></path><path d="M119.206 24.387C119.069 24.1141 118.899 23.8753 118.66 23.6707C118.421 23.4661 118.114 23.3296 117.773 23.2614C118.182 23.0909 118.489 22.8521 118.728 22.5452C118.933 22.2382 119.069 21.863 119.069 21.4878C119.069 20.7033 118.796 20.0894 118.217 19.7142C117.637 19.3049 116.852 19.1344 115.863 19.1344H112.009V20.1235L112.964 20.2941V26.6722L112.009 26.8427V27.8318H116.272C117.262 27.8318 118.012 27.6272 118.558 27.1838C119.103 26.7745 119.376 26.1264 119.376 25.3079C119.41 24.9668 119.342 24.6598 119.206 24.387ZM114.601 20.3623H115.897C116.409 20.3623 116.818 20.4646 117.057 20.6692C117.33 20.8739 117.466 21.1809 117.466 21.5901C117.466 21.9653 117.33 22.2723 117.091 22.4769C116.852 22.6816 116.477 22.7839 116.034 22.7839H114.601V20.3623ZM117.398 26.2629C117.159 26.4675 116.784 26.6039 116.307 26.6039H114.601V23.9436H116.443C116.75 23.9436 116.989 23.9777 117.193 24.1141C117.398 24.2164 117.534 24.387 117.637 24.5916C117.739 24.7962 117.773 25.035 117.773 25.342C117.773 25.7172 117.637 26.0241 117.398 26.2629Z" fill="black"></path><path d="M129.267 20.0893V19.1002H125.754V20.0893L126.709 20.2599V22.8862H123.026V20.2599L123.981 20.0893V19.1002H120.468V20.0893L121.423 20.2599V26.638L120.468 26.8085V27.7976H123.981V26.8085L123.026 26.638V24.1481H126.709V26.638L125.754 26.8085V27.7976H129.267V26.8085L128.312 26.638V20.294L129.267 20.0893Z" fill="black"></path><path d="M137.828 21.6243C137.658 21.0785 137.385 20.6351 137.044 20.2258C136.703 19.8166 136.294 19.5096 135.816 19.3049C135.339 19.1003 134.793 18.9639 134.213 18.9639C133.633 18.9639 133.122 19.0662 132.644 19.3049C132.167 19.5096 131.757 19.8507 131.416 20.2258C131.075 20.6351 130.802 21.0785 130.632 21.6243C130.461 22.17 130.359 22.7498 130.359 23.3978V23.5343C130.359 24.1823 130.461 24.7621 130.632 25.3079C130.802 25.8536 131.075 26.297 131.416 26.7063C131.757 27.1156 132.167 27.4225 132.644 27.6272C133.122 27.8318 133.667 27.9683 134.247 27.9683C134.827 27.9683 135.373 27.8659 135.85 27.6272C136.328 27.4225 136.737 27.1156 137.078 26.7063C137.419 26.297 137.692 25.8536 137.863 25.3079C138.033 24.7621 138.135 24.1823 138.135 23.5343V23.3978C138.101 22.7839 137.999 22.17 137.828 21.6243ZM136.464 23.5343C136.464 24.1482 136.396 24.6939 136.225 25.1714C136.055 25.6489 135.816 26.0241 135.475 26.2629C135.134 26.5357 134.725 26.6381 134.213 26.6381C133.736 26.6381 133.292 26.5016 132.985 26.2629C132.644 25.99 132.405 25.6148 132.235 25.1714C132.064 24.6939 131.996 24.1482 131.996 23.5343V23.3978C131.996 22.7839 132.098 22.2382 132.235 21.7607C132.405 21.2832 132.644 20.9421 132.985 20.6692C133.326 20.3964 133.736 20.26 134.213 20.26C134.725 20.26 135.134 20.3964 135.475 20.6692C135.816 20.9421 136.055 21.2832 136.225 21.7607C136.396 22.2382 136.464 22.7839 136.464 23.3978V23.5343Z" fill="black"></path><path d="M139.295 19.1002V20.0893L140.216 20.2599V26.638L139.295 26.8085V27.7976H142.808V26.8085L141.853 26.638V20.3622H144.479L144.548 21.249H145.81V19.1002H139.295Z" fill="black"></path><path d="M153.995 21.6243C153.825 21.0785 153.552 20.6351 153.211 20.2258C152.87 19.8166 152.461 19.5096 151.983 19.3049C151.506 19.1003 150.96 18.9639 150.38 18.9639C149.8 18.9639 149.254 19.0662 148.811 19.3049C148.334 19.5096 147.924 19.8507 147.583 20.2258C147.242 20.6351 146.969 21.0785 146.799 21.6243C146.628 22.17 146.526 22.7498 146.526 23.3978V23.5343C146.526 24.1823 146.628 24.7621 146.799 25.3079C146.969 25.8536 147.242 26.297 147.583 26.7063C147.924 27.1156 148.334 27.4225 148.811 27.6272C149.289 27.8318 149.8 27.9683 150.414 27.9683C150.994 27.9683 151.54 27.8659 152.017 27.6272C152.495 27.4225 152.904 27.1156 153.245 26.7063C153.586 26.297 153.859 25.8536 154.03 25.3079C154.2 24.7621 154.302 24.1823 154.302 23.5343V23.3978C154.268 22.7839 154.2 22.17 153.995 21.6243ZM152.665 23.5343C152.665 24.1482 152.563 24.6939 152.426 25.1714C152.256 25.6489 152.017 26.0241 151.676 26.2629C151.335 26.5357 150.926 26.6381 150.414 26.6381C149.903 26.6381 149.493 26.5016 149.186 26.2629C148.845 25.99 148.606 25.6148 148.436 25.1714C148.265 24.6939 148.197 24.1482 148.197 23.5343V23.3978C148.197 22.7839 148.265 22.2382 148.436 21.7607C148.606 21.2832 148.845 20.9421 149.186 20.6692C149.527 20.3964 149.937 20.26 150.414 20.26C150.926 20.26 151.335 20.3964 151.676 20.6692C152.017 20.9421 152.256 21.2832 152.426 21.7607C152.597 22.2382 152.665 22.7839 152.665 23.3978V23.5343Z" fill="black"></path><path d="M160.68 21.6925C160.885 21.215 161.158 20.8739 161.499 20.6352C161.874 20.3964 162.284 20.26 162.795 20.26C163 20.26 163.204 20.2941 163.409 20.3282C163.58 20.3623 163.75 20.4305 163.921 20.4987C164.091 20.5669 164.228 20.6693 164.364 20.7375L164.535 22.0677H165.762V20.0212C165.387 19.6801 164.944 19.4414 164.432 19.2709C163.921 19.1003 163.375 19.0321 162.795 19.0321C161.942 19.0321 161.226 19.2026 160.646 19.5778C160.032 19.953 159.589 20.4646 159.248 21.1127C158.941 21.7607 158.77 22.5111 158.77 23.3638V23.6366C158.77 24.5234 158.941 25.2738 159.248 25.9218C159.589 26.5699 160.067 27.0815 160.68 27.4567C161.294 27.7977 162.045 28.0024 162.897 28.0024C163.477 28.0024 164.023 27.9342 164.535 27.7977C165.012 27.6613 165.456 27.4567 165.762 27.252V25.2056H164.535L164.364 26.4334C164.159 26.5358 163.955 26.604 163.682 26.6722C163.409 26.7404 163.17 26.7745 162.897 26.7745C162.386 26.7745 161.908 26.6381 161.533 26.3993C161.158 26.1606 160.851 25.7854 160.646 25.342C160.442 24.8645 160.339 24.3188 160.339 23.7048V23.432C160.374 22.7157 160.476 22.17 160.68 21.6925Z" fill="black"></path><path d="M175.927 20.0893V19.1002H167.093V20.0893L168.014 20.2599V26.638L167.093 26.8085V27.7976H170.606V26.8085L169.651 26.638V20.3622H173.334V26.6721L172.413 26.8426V27.8317H175.927V26.8426L174.972 26.6721V20.294L175.927 20.0893Z" fill="black"></path><path d="M184.419 21.6243C184.249 21.0785 183.976 20.6351 183.635 20.2258C183.294 19.8166 182.884 19.5096 182.407 19.3049C181.929 19.1003 181.384 18.9639 180.804 18.9639C180.224 18.9639 179.678 19.0662 179.235 19.3049C178.757 19.5096 178.348 19.8507 178.007 20.2258C177.666 20.6351 177.393 21.0785 177.223 21.6243C177.052 22.17 176.95 22.7498 176.95 23.3978V23.5343C176.95 24.1823 177.052 24.7621 177.223 25.3079C177.393 25.8536 177.666 26.297 178.007 26.7063C178.348 27.1156 178.757 27.4225 179.235 27.6272C179.712 27.8318 180.224 27.9683 180.838 27.9683C181.418 27.9683 181.964 27.8659 182.441 27.6272C182.919 27.4225 183.328 27.1156 183.669 26.7063C184.01 26.297 184.283 25.8536 184.453 25.3079C184.624 24.7621 184.726 24.1823 184.726 23.5343V23.3978C184.692 22.7839 184.624 22.17 184.419 21.6243ZM183.089 23.5343C183.089 24.1482 182.987 24.6939 182.85 25.1714C182.68 25.6489 182.441 26.0241 182.1 26.2629C181.759 26.5357 181.35 26.6381 180.838 26.6381C180.361 26.6381 179.917 26.5016 179.61 26.2629C179.269 25.99 179.03 25.6148 178.86 25.1714C178.689 24.6939 178.621 24.1482 178.621 23.5343V23.3978C178.621 22.7839 178.689 22.2382 178.86 21.7607C179.03 21.2832 179.269 20.9421 179.61 20.6692C179.951 20.3964 180.361 20.26 180.838 20.26C181.35 20.26 181.759 20.3964 182.1 20.6692C182.441 20.9421 182.68 21.2832 182.85 21.7607C183.021 22.2382 183.089 22.7839 183.089 23.3978V23.5343Z" fill="black"></path><path d="M192.776 20.4305C192.537 20.0212 192.162 19.7142 191.684 19.4755C191.207 19.2367 190.661 19.1344 189.979 19.1344H185.886V20.1235L186.841 20.2941V26.6722L185.886 26.8427V27.8318H189.399V26.8427L188.444 26.6722V24.5916H189.979C190.627 24.5916 191.207 24.4893 191.684 24.2505C192.162 24.0118 192.537 23.7048 192.776 23.2955C193.049 22.8862 193.151 22.4087 193.151 21.863C193.185 21.3173 193.049 20.8398 192.776 20.4305ZM191.139 22.9203C190.866 23.1932 190.491 23.3296 189.979 23.3296H188.444V20.3623H189.979C190.491 20.3623 190.866 20.4987 191.139 20.7716C191.411 21.0444 191.514 21.4196 191.514 21.863C191.548 22.3064 191.411 22.6475 191.139 22.9203Z" fill="black"></path><path d="M194.072 19.1002V21.4195H195.3L195.402 20.3281H197.073V26.638L196.152 26.8085V27.7976H199.665V26.8085L198.71 26.638V20.3622H200.382L200.484 21.4536H201.712V19.1002H194.072Z" fill="black"></path><path d="M209.386 26.7744L206.589 19.1002H204.952L202.121 26.7403L201.507 26.8426V27.8317H204.372V26.8426L203.758 26.7403L204.202 25.4442H207.34L207.749 26.7403L207.135 26.8426V27.8317H210V26.8426L209.386 26.7744ZM204.577 24.2163L205.668 21.1467L205.771 20.8738H205.805L205.907 21.1126L206.964 24.2163H204.577Z" fill="black"></path><path d="M56.8572 37.3819C57.0619 36.9385 57.3347 36.5634 57.7099 36.3246C58.0851 36.0859 58.4944 35.9494 59.006 35.9494C59.2106 35.9494 59.4153 35.9835 59.5858 36.0176C59.7905 36.0517 59.9269 36.12 60.0974 36.1882C60.268 36.2564 60.4044 36.3246 60.5408 36.4269L60.7114 37.7571H61.9392V35.7107C61.5641 35.3696 61.1207 35.1308 60.609 34.9603C60.0974 34.7898 59.5517 34.7216 58.9719 34.7216C58.1192 34.7216 57.4029 34.8921 56.8231 35.2673C56.2433 35.6425 55.7658 36.1541 55.4247 36.8021C55.0836 37.4502 54.9472 38.2005 54.9472 39.0532V39.3261C54.9472 40.2129 55.1177 40.9632 55.4588 41.6113C55.7999 42.2593 56.2774 42.7709 56.8913 43.1461C57.5053 43.4872 58.2556 43.6918 59.1083 43.6918C59.6881 43.6918 60.2339 43.6236 60.7455 43.4872C61.223 43.3508 61.6664 43.1461 61.9734 42.9415V40.895H60.7114L60.5408 42.1229C60.3362 42.2252 60.0974 42.2934 59.8587 42.3616C59.5858 42.4299 59.3471 42.464 59.0742 42.464C58.5626 42.464 58.0851 42.3275 57.7099 42.0888C57.3347 41.85 57.0278 41.4748 56.8231 41.0314C56.6185 40.5539 56.5161 40.0082 56.5161 39.3943V39.1214C56.5503 38.4052 56.6526 37.8594 56.8572 37.3819Z" fill="black"></path><path d="M71.0118 42.4639L68.215 34.7897H66.6119L63.781 42.4298L63.1671 42.5321V43.5212H66.0321V42.5321L65.4182 42.4298L65.8274 41.1337H68.9994L69.4087 42.4298L68.7948 42.5321V43.5212H71.6598V42.5321L71.0118 42.4639ZM66.2026 39.9058L67.2941 36.802L67.3964 36.5292H67.4305L67.5328 36.7679L68.5902 39.8717H66.2026V39.9058Z" fill="black"></path><path d="M81.4146 35.7788V34.7897H77.9015V35.7788L78.8565 35.9493V38.5756H75.1729V35.9493L76.1279 35.7788V34.7897H72.6149V35.7788L73.5699 35.9493V42.3274L72.6149 42.498V43.4871H76.1279V42.498L75.1729 42.3274V39.8035H78.8565V42.3274L77.9015 42.498V43.4871H81.4146V42.498L80.4596 42.3274V35.9493L81.4146 35.7788Z" fill="black"></path><path d="M89.7369 42.3957L87.2129 38.9167L88.6795 36.9044C88.8842 36.6315 89.0547 36.4269 89.2253 36.3246C89.3958 36.2222 89.5663 36.154 89.7369 36.154C89.8051 36.154 89.8733 36.154 89.9415 36.1881C90.0097 36.1881 90.0779 36.2222 90.1803 36.2563L90.4531 35.0285C90.3167 34.9262 90.1461 34.8579 89.9756 34.8238C89.8051 34.7897 89.6004 34.7556 89.3958 34.7556C89.0547 34.7556 88.7477 34.8579 88.4408 35.0285C88.1679 35.199 87.8609 35.5401 87.4858 36.0176L85.7804 38.4733H84.9618V35.9835L85.8827 35.8129V34.7897H82.4037V35.7788L83.3588 35.9494V42.3275L82.4037 42.498V43.4871H85.8827V42.498L84.9618 42.3275V39.9059H86.0191L87.7927 42.4298L87.8268 42.4639L87.2811 42.5321V43.5212H90.6237V42.5321L89.7369 42.3957Z" fill="black"></path><path d="M91.4763 34.7897V37.109H92.7042L92.8065 36.0175H94.4778V42.3274L93.5228 42.498V43.4871H97.0358V42.498L96.0808 42.3274V36.0175H97.7521L97.8544 37.109H99.0823V34.7897H91.4763Z" fill="black"></path><path d="M99.0141 39.1555V40.4175H102.288V39.1555H99.0141Z" fill="black"></path><path d="M112.623 35.7788V34.7897H103.789V35.7788L104.71 35.9493V42.3274L103.789 42.498V43.4871H107.302V42.498L106.347 42.3274V36.0175H110.031V42.3274L109.11 42.498V43.4871H112.623V42.498L111.668 42.3274V35.9493L112.623 35.7788Z" fill="black"></path><path d="M119.206 41.2019L119.103 42.2933H116.17V39.667H119.172V38.4051H116.17V36.0858H118.967L119.069 37.1431H120.331V34.7897H113.646V35.7788L114.567 35.9493V42.3274L113.646 42.498V43.4871H120.502V41.1678H119.206V41.2019Z" fill="black"></path><path d="M121.832 34.7897V37.109H123.06L123.162 36.0175H124.833V42.3274L123.913 42.498V43.4871H127.426V42.498L126.471 42.3274V36.0175H128.142L128.244 37.109H129.472V34.7897H121.832Z" fill="black"></path><path d="M136.089 41.2019L135.987 42.2933H133.053V39.667H136.055V38.4051H133.053V36.0858H135.85L135.953 37.1431H137.214V34.7897H130.529V35.7788L131.484 35.9493V42.3274L130.529 42.498V43.4871H137.385V41.1678H136.089V41.2019Z" fill="black"></path><path d="M145.537 36.1199C145.264 35.7106 144.923 35.3696 144.445 35.1649C143.968 34.9262 143.422 34.8239 142.74 34.8239H138.613V35.813L139.534 35.9835V42.3616L138.613 42.5322V43.5213H142.126V42.5322L141.171 42.3616V40.2811H142.706C143.354 40.2811 143.934 40.1787 144.411 39.94C144.889 39.7012 145.264 39.3943 145.503 38.985C145.741 38.5757 145.878 38.0982 145.878 37.5525C145.912 37.0067 145.81 36.5292 145.537 36.1199ZM143.9 38.6098C143.627 38.8826 143.252 39.0191 142.74 39.0191H141.205V36.0517H142.74C143.252 36.0517 143.627 36.1882 143.9 36.4951C144.172 36.768 144.275 37.1432 144.275 37.5866C144.275 37.9959 144.172 38.3369 143.9 38.6098Z" fill="black"></path><path d="M153.893 39.3601C153.62 38.9508 153.279 38.6438 152.802 38.4392C152.324 38.2345 151.744 38.0981 151.096 38.0981H149.459V36.0516H152.051L152.119 36.9384H153.381V34.7897H146.833V35.7788L147.788 35.9493V42.3274L146.833 42.498V43.4871H151.096C151.744 43.4871 152.324 43.3848 152.802 43.146C153.279 42.9414 153.654 42.6003 153.893 42.191C154.166 41.7817 154.302 41.3042 154.302 40.7585C154.302 40.2469 154.166 39.7694 153.893 39.3601ZM152.256 41.8499C151.983 42.1228 151.608 42.2933 151.096 42.2933H149.459V39.3942H151.096C151.608 39.3942 152.017 39.5306 152.29 39.7694C152.563 40.0422 152.699 40.3833 152.699 40.7926C152.665 41.2019 152.529 41.543 152.256 41.8499Z" fill="black"></path><path d="M159.896 34.7897V35.7788L160.544 35.9152L159.248 39.326H159.214L158.941 38.6779L157.713 35.9152L158.361 35.8129V34.7897H155.087V35.7788L155.974 35.9152L158.498 41.1678L158.327 41.543C158.225 41.8158 158.088 42.0546 157.918 42.191C157.747 42.3274 157.543 42.3957 157.236 42.3957C157.167 42.3957 157.099 42.3957 156.963 42.3957C156.86 42.3957 156.758 42.3956 156.724 42.3615V43.5894C156.792 43.5894 156.86 43.5894 156.997 43.6235C157.133 43.6235 157.236 43.6235 157.338 43.6235C157.747 43.6235 158.122 43.5553 158.395 43.4189C158.668 43.2824 158.907 43.0778 159.112 42.839C159.316 42.5662 159.487 42.2592 159.657 41.884L162.181 35.8811L163 35.7788V34.7897H159.896Z" fill="black"></path><path d="M170.81 36.1199C170.538 35.7106 170.196 35.3696 169.719 35.1649C169.241 34.9262 168.696 34.8239 168.014 34.8239H163.887V35.813L164.842 35.9835V42.3616L163.887 42.5322V43.5213H167.4V42.5322L166.445 42.3616V40.2811H167.979C168.628 40.2811 169.207 40.1787 169.685 39.94C170.162 39.7012 170.538 39.3943 170.776 38.985C171.015 38.5757 171.151 38.0982 171.151 37.5525C171.186 37.0067 171.049 36.5292 170.81 36.1199ZM169.173 38.6098C168.9 38.8826 168.525 39.0191 168.014 39.0191H166.445V36.0517H167.979C168.491 36.0517 168.866 36.1882 169.139 36.4951C169.412 36.768 169.514 37.1432 169.514 37.5866C169.548 37.9959 169.412 38.3369 169.173 38.6098Z" fill="black"></path><path d="M172.141 34.7897V35.7788L173.062 35.9493V42.3274L172.141 42.498V43.4871H175.654V42.498L174.699 42.3274V36.0175H177.325L177.393 36.9043H178.655V34.7897H172.141Z" fill="black"></path><path d="M186.329 42.4639L183.498 34.7897H181.861L179.03 42.4298L178.416 42.5321V43.5212H181.281V42.5321L180.667 42.4298L181.077 41.1337H184.249L184.658 42.4298L184.044 42.5321V43.5212H186.909V42.5321L186.329 42.4639ZM181.52 39.9058L182.578 36.802L182.68 36.5292H182.714L182.782 36.7679L183.839 39.8717H181.52V39.9058Z" fill="black"></path><path d="M29.7759 41.6112C30.2193 41.9864 30.3898 42.4298 30.4921 42.7368C30.9696 43.0438 31.4813 42.6686 32.1634 43.5213C32.0952 42.8391 31.413 41.4066 29.7759 41.6112Z" fill="#E94E1B"></path><path d="M34.9261 33.4596C34.9261 33.4596 35.4377 35.8471 37.0749 38.4052C38.2004 40.1788 38.9849 40.9291 38.9849 40.9291C38.9849 40.9291 39.2236 41.202 39.6329 41.202C39.9058 41.202 40.1104 41.1338 40.1104 41.1338C40.1104 41.1338 39.8717 41.0997 39.5306 40.7927C39.1554 40.4516 37.6206 38.5757 36.9043 36.3246C36.154 34.0053 36.3927 31.8906 36.3927 31.8906C36.3927 31.8906 35.9493 32.5728 34.9261 33.4596Z" fill="#E94E1B"></path><path d="M42.8731 43.453C42.7367 42.6344 41.9181 42.2251 41.8158 41.9864C41.0654 41.3724 40.281 41.5089 40.0081 41.5771C39.6329 41.6453 39.2236 41.6794 38.6779 41.236C37.8593 40.5198 35.9834 38.064 35.1307 35.9152C34.278 33.6983 34.0052 32.4022 34.0393 32.334C34.3804 31.9247 34.8238 31.072 34.8238 31.0379C35.8811 28.5821 35.0625 27.0814 34.5168 26.638C34.1416 26.331 33.5277 25.9217 32.4362 26.1605C32.2657 26.1946 31.2766 26.5357 31.2084 26.5698C30.7309 26.7744 29.1278 27.3202 28.7867 27.4225C27.2519 27.8318 25.6488 27.9682 24.5574 28.0705C24.5574 28.0705 25.1031 28.6162 25.3078 29.6736C25.7512 31.9929 23.0908 34.5509 21.0784 36.2563C19.4754 37.6206 18.1111 38.2004 17.8041 38.3369C17.1902 38.6097 14.3592 39.4965 12.9949 37.5183C11.9035 35.8811 13.0973 32.5727 16.9514 33.8006L17.4289 33.9711C16.4398 33.6983 15.8259 34.2781 16.1669 34.892C16.4398 35.3354 17.7018 35.6424 18.8273 35.4718C20.7374 35.1649 21.7265 33.5959 21.9311 32.8456C21.59 33.3231 20.3963 34.244 18.9979 33.3913C18.7932 33.2549 18.5545 32.8797 17.9405 32.8797C17.4971 32.8797 17.2243 33.4595 17.6336 33.8006C17.122 33.5277 16.5762 33.3231 15.7577 33.1866C12.5174 32.6409 10.778 36.4269 13.1314 38.5756C14.8368 40.0764 18.077 39.3601 19.1343 38.6097L18.7591 39.326C18.5204 39.8035 18.4863 40.1105 18.4863 40.4174C18.4863 41.0655 18.7932 41.8841 19.5777 42.3616C20.3281 42.8391 20.942 42.7367 21.1125 42.7026C22.3404 42.498 25.1372 42.4298 26.2628 42.5321C27.1496 42.5662 27.2519 43.3166 28.6503 42.805C28.9914 42.9414 29.1619 42.8391 29.503 43.0096C29.7076 43.0778 30.0487 43.3848 30.151 43.5553C30.1851 43.1801 30.151 42.2592 29.0937 41.6453C29.0937 41.6453 28.7867 41.3383 28.3092 41.2019C27.5589 40.9291 25.5124 41.543 24.1481 41.4066C25.1713 41.4066 26.638 41.0655 27.4906 40.6562C28.4798 40.1787 29.196 39.7012 29.5712 39.1896C30.0146 38.6438 30.0146 37.8253 29.5371 37.2795C28.7526 36.3928 27.6953 36.9385 26.2628 36.9726C27.3201 36.8703 28.9232 36.2563 30.3898 35.0626C30.1851 34.7556 29.8782 34.3804 29.5712 33.8688C28.8208 32.7091 28.9573 31.6177 29.4348 30.5263C29.7076 29.8782 29.7417 28.8891 29.6735 28.4798C30.3216 30.2875 29.5712 30.9697 29.5712 31.9588C29.5712 32.7774 29.81 33.1866 30.5944 34.1758C30.7309 34.3463 32.1634 36.2904 33.0843 37.2454C34.1075 38.3369 34.6873 38.8826 35.1307 39.8035C35.5741 40.7585 35.2672 41.6112 35.2672 41.6112C35.2672 41.6112 35.7106 41.3383 35.8811 40.7244C36.0175 40.1787 35.8811 39.7353 35.8811 39.7353C36.6315 40.7926 35.7447 41.236 36.3927 42.7709C36.3927 42.7709 36.3586 42.4298 36.4268 42.191C36.5974 41.6453 36.9043 41.4748 36.9043 41.4748C36.9043 42.2251 37.5183 42.8732 38.2004 42.9414C38.5756 42.9755 39.019 42.805 39.1213 42.7709C39.4624 42.7026 39.7352 42.7367 39.7352 42.7367C40.281 42.805 40.3492 43.0096 40.8949 43.0096C41.1336 43.0096 41.3383 42.9414 41.4747 42.8732C41.5088 42.8732 41.5429 42.8391 41.577 42.8732C41.9863 43.146 42.2251 42.9073 42.8731 43.453Z" fill="#E94E1B"></path><path d="M41.8158 41.9865C41.8158 41.9865 41.7135 42.157 41.6453 42.1229C41.6453 42.464 41.2701 42.7027 41.2701 42.7709C41.3042 42.7709 41.4747 42.9415 41.5088 42.9074C41.7817 43.0779 42.0204 43.0779 42.3274 43.1802C42.498 43.2484 42.839 43.419 42.9755 43.5554C42.9413 43.2484 42.6685 42.3957 41.8158 41.9865Z" fill="#E94E1B"></path><path d="M37.5524 26.1605C37.2113 24.6257 35.7788 22.6474 32.2998 23.6366C30.8673 24.0459 29.6394 22.7157 29.9464 21.3855C30.1851 20.4646 30.9014 20.0553 31.3107 19.953C31.9928 19.7483 32.368 19.646 32.5385 19.5778C33.2207 19.339 33.4253 18.8274 33.4253 18.8274C33.63 18.7933 33.937 18.7933 34.1416 19.1003C34.1757 18.8274 34.1757 18.5204 34.1757 18.5204C34.1416 17.9406 33.7323 17.4972 32.5727 17.4631C32.1975 17.4631 31.8564 17.429 31.5153 17.429C31.5153 17.429 31.4812 17.3949 31.413 17.2585C31.0037 16.1329 29.2642 15.4849 27.3542 16.2011C27.1837 16.2693 26.9449 16.4058 26.7744 16.5422C26.6038 16.7127 26.331 16.781 26.0922 16.781C25.5806 16.781 25.2054 16.3376 25.2054 15.8601C25.2054 15.7918 25.2395 15.519 25.376 15.3143C24.8644 15.6895 24.5233 16.4058 24.5233 16.9515C24.5233 17.7019 24.8644 18.3499 25.376 18.691C25.1031 19.5096 24.6597 20.2599 24.4892 20.5328C24.1822 20.9762 23.7388 21.4537 23.6024 22.2723C23.3295 24.0117 25.5465 26.7062 30.2875 25.3419C35.3354 23.8753 36.0175 26.8086 36.1539 27.6954C36.495 30.1852 35.2671 32.0611 34.7896 32.8115C35.4718 32.334 38.1663 28.8891 37.5524 26.1605ZM29.7076 17.7701C29.5371 17.7701 29.3665 17.6678 29.196 17.5313C29.0596 17.3949 28.8208 17.2585 28.6503 17.2244C29.0937 17.122 29.6053 17.3267 29.7417 17.3267C30.0146 17.3949 30.151 17.429 30.4239 17.3949C30.3557 17.4972 30.1851 17.8042 29.7076 17.7701Z" fill="#E94E1B"></path><path d="M29.0255 26.7062C28.9914 26.7062 28.9914 26.7403 29.0255 26.7062C27.4566 27.286 25.5465 27.3543 24.9667 27.3884C22.3745 27.4225 18.7592 26.2628 16.9856 24.5233C15.0073 22.5792 14.2911 19.8506 14.8709 17.2584C15.7577 13.1655 20.294 8.59512 25.0349 5.42312C30.8332 1.50075 38.1663 0.409312 43.3507 1.02325C37.3477 1.22789 31.8223 3.61542 27.0473 7.606C25.069 9.27727 20.5669 14.1888 20.4986 18.9979C20.4304 24.6257 25.7171 26.4675 26.638 26.5698C27.5248 26.7403 28.2751 26.8085 29.0255 26.7062Z" fill="#F39200"></path><path d="M13.2337 20.0893C13.7453 23.466 15.4507 27.1155 22.3745 27.8658C19.6118 28.3775 18.077 28.6162 14.8027 27.9341C12.688 27.4907 11.2896 26.7403 10.0617 25.8535C7.74241 24.0458 7.02616 20.7374 7.50366 18.725C9.27725 10.8462 17.1561 5.86649 21.249 3.6154C25.4101 1.26198 31.4813 0 34.5509 0C31.7882 0.613935 24.8303 2.76271 19.987 7.50365C19.3731 8.11759 12.381 14.3252 13.2337 20.0893Z" fill="#F39200"></path><path d="M15.5189 28.8209C12.7903 29.5031 11.2555 29.8441 7.94705 29.3666C5.83239 29.0597 4.36576 28.4116 3.06968 27.5589C0.613936 25.9218 -0.272859 22.6475 0.0682159 20.601C1.33019 12.6199 8.93617 6.85568 12.8244 4.63869C17.3266 2.08063 22.7838 0.409357 25.8876 0.204712C21.3172 1.73955 16.4057 4.19529 11.8353 8.62927C9.58422 10.8122 4.84327 16.4058 5.9006 21.6242C6.61686 25.1373 8.79974 28.6163 15.5189 28.8209Z" fill="#F39200"></path><path d="M25.5807 27.3542C25.3078 27.3542 25.069 27.3884 24.9326 27.3884C22.3745 27.4225 18.7592 26.2628 16.9856 24.5233C15.0073 22.5792 14.2911 19.8506 14.8709 17.2584C15.7577 13.1655 20.294 8.59511 25.0349 5.42311C28.9573 2.76273 33.5959 1.39843 37.7911 0.989136C26.7744 1.94415 4.0247 21.3854 25.5807 27.3542Z" fill="#00A754"></path><path d="M17.5995 28.3434C16.7809 28.3093 15.8941 28.1728 14.8368 27.9341C12.7221 27.4907 11.3237 26.7403 10.0958 25.8535C7.7765 24.0458 7.06024 20.7374 7.53775 18.7251C9.31134 10.8462 17.1902 5.86652 21.2831 3.61543C23.7388 2.25112 26.8426 1.26201 29.6053 0.648071C2.7627 11.0168 7.57186 27.3884 17.5995 28.3434Z" fill="#2581C4"></path><path d="M10.9144 29.5713C10.0617 29.5713 9.10671 29.5031 7.94705 29.3325C5.83239 29.0256 4.36576 28.3775 3.06968 27.5248C0.613936 25.8877 -0.272859 22.6134 0.0682159 20.5669C1.33019 12.5857 8.93617 6.82157 12.8244 4.60458C15.6895 2.96742 18.9638 1.70544 21.7606 0.955078C-5.96882 13.4725 0.750367 29.9806 10.9144 29.5713Z" fill="#E73452"></path><path d="M29.503 38.1664C29.6394 38.985 28.5821 39.5989 28.548 39.633C28.7867 39.1214 28.6844 38.6098 27.934 38.5757C28.241 38.4734 28.548 38.4393 28.8549 38.5075C28.4798 37.9618 27.5248 38.03 26.6039 38.337C26.8085 38.1664 27.0472 37.9959 27.3201 37.8936C26.638 37.8253 25.069 38.03 24.2504 38.4734C24.3528 38.3711 24.8644 37.9618 25.1713 37.8594C24.7279 37.8594 24.2163 37.9618 23.7047 38.1323C24.1481 37.9277 24.6256 37.723 25.1031 37.5866C25.5465 37.4502 29.2301 36.2564 29.503 38.1664Z" fill="#F39200"></path><path d="M34.6533 36.154C35.0284 36.8361 35.4718 37.5183 35.9152 38.1663C35.0967 37.0408 32.5386 33.5618 32.7091 32.368C32.5386 32.7091 32.5386 33.2548 32.6068 33.63C32.1293 32.6409 32.2316 31.413 32.8456 30.4921C32.6068 30.6968 32.3339 31.0037 32.1634 31.3448C32.1975 31.1061 32.3681 30.5944 32.6409 30.1852C32.9479 29.7759 33.289 29.4007 33.3572 28.9232C33.3913 28.6844 33.3572 28.4457 33.3231 28.2069C33.289 28.7526 33.0161 29.3666 32.4022 29.7418C32.6409 29.3325 33.1525 27.9682 32.3339 27.4224C31.7541 27.0473 31.3789 27.0473 30.9014 27.1496C31.072 27.0814 31.2084 27.0132 31.3789 26.9449C31.413 26.9449 31.4472 26.9108 31.4813 26.8767C31.5154 26.8767 31.5154 26.8426 31.5495 26.8426C31.5836 26.8085 31.6518 26.8085 31.6859 26.7744C31.7541 26.7403 31.8223 26.7062 31.8905 26.7062C31.9588 26.6721 31.9929 26.6721 32.0611 26.6721H32.0952C32.2316 26.638 32.3681 26.638 32.5045 26.638H32.5386C33.0843 26.6039 33.5959 26.8426 34.0734 27.3201C34.0734 27.3201 35.2672 28.6503 34.0052 30.765C33.7665 31.0719 33.2548 31.8905 33.289 32.9138V32.9479C33.289 33.0502 33.289 33.3572 33.3572 33.6641C33.4254 33.937 33.6641 34.5168 33.8347 34.8579C33.8347 34.892 34.1075 35.4036 34.2099 35.6424C34.4145 35.7106 34.5168 35.9152 34.6533 36.154Z" fill="#F39200"></path><path d="M20.6692 33.9371C20.2599 34.1417 19.7824 34.244 19.2708 34.1758C18.4522 34.0735 17.9065 33.6642 17.8383 33.4596C17.8383 33.4254 17.8383 33.3231 17.9065 33.2549C17.9747 33.2208 18.0429 33.1526 18.2475 33.1526C18.4522 33.2208 18.5886 33.3231 18.7251 33.4596C18.7933 33.5278 18.8615 33.596 18.9297 33.6301C19.5095 34.0053 20.1235 34.0735 20.6692 33.9371Z" fill="#F39200"></path><path d="M33.9711 18.3158C33.3912 17.5995 32.0952 17.8042 31.413 17.8383C31.0037 17.8724 30.5603 17.9065 30.0828 17.9747C30.3557 17.8042 30.458 17.5995 30.6285 17.3267C30.151 17.3949 29.8441 17.1902 29.503 17.122C28.9232 16.9856 28.0023 16.9174 27.4906 17.1561C28.3092 17.0879 28.7867 17.9065 29.7417 18.0429C28.241 18.1794 27.4565 18.9297 26.7744 19.8847C26.4333 20.3622 25.5124 21.556 25.376 22.1358C25.0349 23.5001 26.2628 24.728 27.3201 25.2396C25.1372 25.0691 23.3636 23.3296 24.421 21.3172C24.762 20.7033 25.5465 19.7483 25.7171 18.5204C24.9667 18.2135 24.5915 17.1561 24.9667 16.2011C25.069 17.1561 26.0922 17.5995 26.7744 17.429C26.5356 17.3608 26.331 17.2243 26.1604 17.0538C26.4674 17.1902 26.8426 17.0879 27.1496 16.9515C27.4565 16.8151 27.7635 16.6104 28.1046 16.5763C27.7294 16.5081 27.3542 16.5422 27.0131 16.6786C27.7976 16.167 28.7185 16.0647 29.6394 16.2011C30.0487 16.2693 30.5944 16.4058 31.106 17.122C31.1401 17.1902 31.2084 17.2926 31.2425 17.3608C31.3107 17.4972 31.3448 17.5313 31.3448 17.5313L31.3789 17.5995H31.4471C31.7882 17.6336 32.1634 17.6336 32.5386 17.6336C33.63 17.6677 33.9029 18.0429 33.9711 18.3158Z" fill="#F39200"></path><path d="M36.9043 26.6039C36.9384 26.4675 36.6315 25.5807 36.2222 25.3078C36.3245 25.683 36.3586 26.2287 36.3586 26.6039C35.9493 25.376 35.2331 24.1141 33.4254 23.8753C35.8811 23.6024 37.0749 25.2396 36.9043 26.6039Z" fill="#F39200"></path><path d="M39.7352 41.8841C39.7352 41.8841 40.3151 41.5771 40.8949 41.8159C41.4747 42.0546 41.2701 42.3616 41.2701 42.3616C41.2701 42.3616 41.0313 42.5663 40.6561 42.2252C40.2809 41.8841 39.7352 41.8841 39.7352 41.8841Z" fill="#F39200"></path><path d="M27.286 41.543C27.286 41.543 27.8658 41.2361 28.4457 41.4748C29.0255 41.7136 28.8208 42.0205 28.8208 42.0205C28.8208 42.0205 28.5821 42.2252 28.2069 41.8841C27.8317 41.5089 27.286 41.543 27.286 41.543Z" fill="#F39200"></path><path d="M25.4101 28.548C25.4101 28.548 27.6953 32.1975 21.2831 36.6315C21.2831 36.6315 28.1046 33.4595 26.7744 28.3774L25.4101 28.548Z" fill="#F39200"></path><path d="M31.3448 41.6112C31.7541 41.8499 32.1975 42.3275 32.2658 42.7367C32.7433 43.0437 33.0161 42.6003 33.6983 43.453C33.6642 42.805 32.982 41.4066 31.3448 41.6112Z" fill="#E94E1B"></path><path d="M42.3274 41.8841C42.3274 41.8841 44.101 41.7476 44.5103 43.5553C43.8963 42.9755 43.6576 43.2143 43.146 42.9414C43.146 42.9414 42.9754 42.3275 42.3274 41.8841Z" fill="#E94E1B"></path><path d="M43.8964 41.9864C44.408 41.9182 45.7041 42.191 46.0451 43.5553C45.4312 42.9755 45.2266 43.2825 44.7149 43.0096C44.7149 43.0096 44.5444 42.4298 43.8964 41.9864Z" fill="#E94E1B"></path></g><defs><clipPath id="clip0_6_786"><rect width="210" height="43.6576" fill="white"></rect></clipPath></defs></svg> 